<svg width="64" height="65" viewBox="0 0 64 65" fill="none" xmlns="http://www.w3.org/2000/svg">
<path fill-rule="evenodd" clip-rule="evenodd" d="M63.809 9.64918C64.5589 8.25288 62.8586 8.67636 62.8586 8.67636C62.8586 8.67636 51.5229 19.5577 49.9474 18.2243C48.3719 16.8909 61.0463 6.46191 59.5465 4.51307C58.1588 2.6965 47.0236 15.6653 45.686 14.0813C44.3611 12.5004 55.2211 1.1498 55.2211 1.1498C55.2211 1.1498 55.6339 -0.55904 54.2483 0.189776C37.1738 9.37184 34.9988 17.932 34.9988 17.932C34.9988 17.932 34.411 19.5993 35.6868 20.8878C35.8116 20.9998 4.53521 52.0992 0.348451 56.2976C-1.68893 58.3329 5.78644 65.6856 7.81101 63.6503C11.9988 59.4519 43.0374 28.1264 43.1494 28.2426C44.4369 29.528 46.0998 28.9381 46.0998 28.9381C46.0998 28.9381 54.6461 26.7567 63.809 9.64918Z" fill="#F39C12"/>
<path fill-rule="evenodd" clip-rule="evenodd" d="M32.0291 41.076C40.3524 49.4175 54.3847 63.4755 54.3847 63.4755C54.3847 63.4755 60.5097 61.4711 61.3726 56.2977L39.1055 33.9868C37.0297 36.0626 34.62 38.4754 32.0291 41.076Z" fill="#F39C12"/>
<path fill-rule="evenodd" clip-rule="evenodd" d="M21.0763 33.846C24.382 30.5424 27.4658 27.4533 30.0226 24.8858L5.82156 0.638863C5.82156 0.638863 5.38422 0.180186 4.421 1.14767C2.50842 3.05385 -1.19193 15.1992 14.4959 30.9104C16.9823 33.4022 19.1456 33.7478 21.0763 33.846Z" fill="#F39C12"/>
</svg>
